<mxfile host="Electron" modified="2023-09-12T07:58:09.088Z" agent="Mozilla/5.0 (Windows NT 10.0; Win64; x64) AppleWebKit/537.36 (KHTML, like Gecko) draw.io/21.6.8 Chrome/114.0.5735.289 Electron/25.5.0 Safari/537.36" etag="PTBEZAGC4FIlIjRsYGzM" version="21.6.8" type="device">
  <diagram name="Page-1" id="voI8EBtMX3CbzOLf6dfp">
    <mxGraphModel dx="1050" dy="629" grid="0" gridSize="12.5984" guides="1" tooltips="1" connect="1" arrows="1" fold="1" page="1" pageScale="1" pageWidth="600" pageHeight="400" math="0" shadow="0">
      <root>
        <mxCell id="0" />
        <mxCell id="1" parent="0" />
        <mxCell id="aKW-pcGmiRxut2tbiqx5-150" value="" style="rounded=0;whiteSpace=wrap;html=1;strokeColor=none;fillColor=#666666;fontColor=#ffffff;glass=0;shadow=1;" parent="1" vertex="1">
          <mxGeometry x="325" y="25" width="250" height="100" as="geometry" />
        </mxCell>
        <mxCell id="aKW-pcGmiRxut2tbiqx5-103" value="" style="group" parent="1" vertex="1" connectable="0">
          <mxGeometry x="25" y="25" width="59.8424" height="28.346400000000003" as="geometry" />
        </mxCell>
        <mxCell id="aKW-pcGmiRxut2tbiqx5-1" value="" style="rounded=1;whiteSpace=wrap;html=1;arcSize=50;fillColor=#CCCCCC;" parent="aKW-pcGmiRxut2tbiqx5-103" vertex="1">
          <mxGeometry width="59.8424" height="28.3464" as="geometry" />
        </mxCell>
        <mxCell id="aKW-pcGmiRxut2tbiqx5-2" value="" style="ellipse;whiteSpace=wrap;html=1;aspect=fixed;" parent="aKW-pcGmiRxut2tbiqx5-103" vertex="1">
          <mxGeometry x="4.719999999999999" y="4.719999999999999" width="18.9" height="18.897599999999997" as="geometry" />
        </mxCell>
        <mxCell id="aKW-pcGmiRxut2tbiqx5-3" value="" style="ellipse;whiteSpace=wrap;html=1;aspect=fixed;" parent="aKW-pcGmiRxut2tbiqx5-103" vertex="1">
          <mxGeometry x="36.22" y="4.719999999999999" width="18.9" height="18.897599999999997" as="geometry" />
        </mxCell>
        <mxCell id="aKW-pcGmiRxut2tbiqx5-104" value="" style="group" parent="1" vertex="1" connectable="0">
          <mxGeometry x="25" y="62" width="91.33839999999998" height="28.346400000000003" as="geometry" />
        </mxCell>
        <mxCell id="aKW-pcGmiRxut2tbiqx5-4" value="" style="rounded=1;whiteSpace=wrap;html=1;arcSize=50;fillColor=#CCCCCC;" parent="aKW-pcGmiRxut2tbiqx5-104" vertex="1">
          <mxGeometry width="91.3384" height="28.3464" as="geometry" />
        </mxCell>
        <mxCell id="aKW-pcGmiRxut2tbiqx5-13" value="" style="ellipse;whiteSpace=wrap;html=1;aspect=fixed;" parent="aKW-pcGmiRxut2tbiqx5-104" vertex="1">
          <mxGeometry x="4.719999999999999" y="4.719999999999999" width="18.9" height="18.897599999999997" as="geometry" />
        </mxCell>
        <mxCell id="aKW-pcGmiRxut2tbiqx5-14" value="" style="ellipse;whiteSpace=wrap;html=1;aspect=fixed;" parent="aKW-pcGmiRxut2tbiqx5-104" vertex="1">
          <mxGeometry x="36.22" y="4.719999999999999" width="18.9" height="18.897599999999997" as="geometry" />
        </mxCell>
        <mxCell id="aKW-pcGmiRxut2tbiqx5-16" value="" style="ellipse;whiteSpace=wrap;html=1;aspect=fixed;" parent="aKW-pcGmiRxut2tbiqx5-104" vertex="1">
          <mxGeometry x="67.72" y="4.719999999999999" width="18.9" height="18.897599999999997" as="geometry" />
        </mxCell>
        <mxCell id="aKW-pcGmiRxut2tbiqx5-105" value="" style="group" parent="1" vertex="1" connectable="0">
          <mxGeometry x="25" y="99" width="154.3304" height="28.34639999999999" as="geometry" />
        </mxCell>
        <mxCell id="aKW-pcGmiRxut2tbiqx5-5" value="" style="rounded=1;whiteSpace=wrap;html=1;arcSize=50;fillColor=#CCCCCC;" parent="aKW-pcGmiRxut2tbiqx5-105" vertex="1">
          <mxGeometry width="154.3304" height="28.3464" as="geometry" />
        </mxCell>
        <mxCell id="aKW-pcGmiRxut2tbiqx5-18" value="" style="ellipse;whiteSpace=wrap;html=1;aspect=fixed;" parent="aKW-pcGmiRxut2tbiqx5-105" vertex="1">
          <mxGeometry x="4.719999999999999" y="4.719999999999999" width="18.9" height="18.897599999999997" as="geometry" />
        </mxCell>
        <mxCell id="aKW-pcGmiRxut2tbiqx5-19" value="" style="ellipse;whiteSpace=wrap;html=1;aspect=fixed;" parent="aKW-pcGmiRxut2tbiqx5-105" vertex="1">
          <mxGeometry x="36.22" y="4.719999999999999" width="18.9" height="18.897599999999997" as="geometry" />
        </mxCell>
        <mxCell id="aKW-pcGmiRxut2tbiqx5-20" value="" style="ellipse;whiteSpace=wrap;html=1;aspect=fixed;" parent="aKW-pcGmiRxut2tbiqx5-105" vertex="1">
          <mxGeometry x="67.72" y="4.719999999999999" width="18.9" height="18.897599999999997" as="geometry" />
        </mxCell>
        <mxCell id="aKW-pcGmiRxut2tbiqx5-21" value="" style="ellipse;whiteSpace=wrap;html=1;aspect=fixed;" parent="aKW-pcGmiRxut2tbiqx5-105" vertex="1">
          <mxGeometry x="99.21000000000001" y="4.719999999999999" width="18.9" height="18.897599999999997" as="geometry" />
        </mxCell>
        <mxCell id="aKW-pcGmiRxut2tbiqx5-22" value="" style="ellipse;whiteSpace=wrap;html=1;aspect=fixed;" parent="aKW-pcGmiRxut2tbiqx5-105" vertex="1">
          <mxGeometry x="130.71" y="4.719999999999999" width="18.9" height="18.897599999999997" as="geometry" />
        </mxCell>
        <mxCell id="aKW-pcGmiRxut2tbiqx5-106" value="" style="group" parent="1" vertex="1" connectable="0">
          <mxGeometry x="25" y="136" width="217.32240000000002" height="28.34639999999999" as="geometry" />
        </mxCell>
        <mxCell id="aKW-pcGmiRxut2tbiqx5-6" value="" style="rounded=1;whiteSpace=wrap;html=1;arcSize=50;fillColor=#CCCCCC;" parent="aKW-pcGmiRxut2tbiqx5-106" vertex="1">
          <mxGeometry width="217.32240000000002" height="28.3464" as="geometry" />
        </mxCell>
        <mxCell id="aKW-pcGmiRxut2tbiqx5-23" value="" style="ellipse;whiteSpace=wrap;html=1;aspect=fixed;" parent="aKW-pcGmiRxut2tbiqx5-106" vertex="1">
          <mxGeometry x="4.719999999999999" y="4.719999999999999" width="18.9" height="18.897599999999997" as="geometry" />
        </mxCell>
        <mxCell id="aKW-pcGmiRxut2tbiqx5-24" value="" style="ellipse;whiteSpace=wrap;html=1;aspect=fixed;" parent="aKW-pcGmiRxut2tbiqx5-106" vertex="1">
          <mxGeometry x="36.22" y="4.719999999999999" width="18.9" height="18.897599999999997" as="geometry" />
        </mxCell>
        <mxCell id="aKW-pcGmiRxut2tbiqx5-25" value="" style="ellipse;whiteSpace=wrap;html=1;aspect=fixed;" parent="aKW-pcGmiRxut2tbiqx5-106" vertex="1">
          <mxGeometry x="67.72" y="4.719999999999999" width="18.9" height="18.897599999999997" as="geometry" />
        </mxCell>
        <mxCell id="aKW-pcGmiRxut2tbiqx5-26" value="" style="ellipse;whiteSpace=wrap;html=1;aspect=fixed;" parent="aKW-pcGmiRxut2tbiqx5-106" vertex="1">
          <mxGeometry x="99.21000000000001" y="4.719999999999999" width="18.9" height="18.897599999999997" as="geometry" />
        </mxCell>
        <mxCell id="aKW-pcGmiRxut2tbiqx5-27" value="" style="ellipse;whiteSpace=wrap;html=1;aspect=fixed;" parent="aKW-pcGmiRxut2tbiqx5-106" vertex="1">
          <mxGeometry x="130.71" y="4.719999999999999" width="18.9" height="18.897599999999997" as="geometry" />
        </mxCell>
        <mxCell id="aKW-pcGmiRxut2tbiqx5-28" value="" style="ellipse;whiteSpace=wrap;html=1;aspect=fixed;" parent="aKW-pcGmiRxut2tbiqx5-106" vertex="1">
          <mxGeometry x="162.20000000000002" y="4.719999999999999" width="18.9" height="18.897599999999997" as="geometry" />
        </mxCell>
        <mxCell id="aKW-pcGmiRxut2tbiqx5-29" value="" style="ellipse;whiteSpace=wrap;html=1;aspect=fixed;" parent="aKW-pcGmiRxut2tbiqx5-106" vertex="1">
          <mxGeometry x="193.70000000000002" y="4.719999999999999" width="18.9" height="18.897599999999997" as="geometry" />
        </mxCell>
        <mxCell id="aKW-pcGmiRxut2tbiqx5-107" value="" style="group" parent="1" vertex="1" connectable="0">
          <mxGeometry x="25" y="173" width="280.3144" height="28.34639999999999" as="geometry" />
        </mxCell>
        <mxCell id="aKW-pcGmiRxut2tbiqx5-9" value="" style="rounded=1;whiteSpace=wrap;html=1;arcSize=50;fillColor=#CCCCCC;" parent="aKW-pcGmiRxut2tbiqx5-107" vertex="1">
          <mxGeometry width="280.3144" height="28.3464" as="geometry" />
        </mxCell>
        <mxCell id="aKW-pcGmiRxut2tbiqx5-30" value="" style="ellipse;whiteSpace=wrap;html=1;aspect=fixed;" parent="aKW-pcGmiRxut2tbiqx5-107" vertex="1">
          <mxGeometry x="4.719999999999999" y="4.719999999999999" width="18.9" height="18.897599999999997" as="geometry" />
        </mxCell>
        <mxCell id="aKW-pcGmiRxut2tbiqx5-31" value="" style="ellipse;whiteSpace=wrap;html=1;aspect=fixed;" parent="aKW-pcGmiRxut2tbiqx5-107" vertex="1">
          <mxGeometry x="36.22" y="4.719999999999999" width="18.9" height="18.897599999999997" as="geometry" />
        </mxCell>
        <mxCell id="aKW-pcGmiRxut2tbiqx5-32" value="" style="ellipse;whiteSpace=wrap;html=1;aspect=fixed;" parent="aKW-pcGmiRxut2tbiqx5-107" vertex="1">
          <mxGeometry x="67.72" y="4.719999999999999" width="18.9" height="18.897599999999997" as="geometry" />
        </mxCell>
        <mxCell id="aKW-pcGmiRxut2tbiqx5-33" value="" style="ellipse;whiteSpace=wrap;html=1;aspect=fixed;" parent="aKW-pcGmiRxut2tbiqx5-107" vertex="1">
          <mxGeometry x="99.21000000000001" y="4.719999999999999" width="18.9" height="18.897599999999997" as="geometry" />
        </mxCell>
        <mxCell id="aKW-pcGmiRxut2tbiqx5-34" value="" style="ellipse;whiteSpace=wrap;html=1;aspect=fixed;" parent="aKW-pcGmiRxut2tbiqx5-107" vertex="1">
          <mxGeometry x="130.71" y="4.719999999999999" width="18.9" height="18.897599999999997" as="geometry" />
        </mxCell>
        <mxCell id="aKW-pcGmiRxut2tbiqx5-35" value="" style="ellipse;whiteSpace=wrap;html=1;aspect=fixed;" parent="aKW-pcGmiRxut2tbiqx5-107" vertex="1">
          <mxGeometry x="162.20000000000002" y="4.719999999999999" width="18.9" height="18.897599999999997" as="geometry" />
        </mxCell>
        <mxCell id="aKW-pcGmiRxut2tbiqx5-36" value="" style="ellipse;whiteSpace=wrap;html=1;aspect=fixed;" parent="aKW-pcGmiRxut2tbiqx5-107" vertex="1">
          <mxGeometry x="193.70000000000005" y="4.719999999999999" width="18.9" height="18.897599999999997" as="geometry" />
        </mxCell>
        <mxCell id="aKW-pcGmiRxut2tbiqx5-37" value="" style="ellipse;whiteSpace=wrap;html=1;aspect=fixed;" parent="aKW-pcGmiRxut2tbiqx5-107" vertex="1">
          <mxGeometry x="225.20000000000005" y="4.719999999999999" width="18.9" height="18.897599999999997" as="geometry" />
        </mxCell>
        <mxCell id="aKW-pcGmiRxut2tbiqx5-38" value="" style="ellipse;whiteSpace=wrap;html=1;aspect=fixed;" parent="aKW-pcGmiRxut2tbiqx5-107" vertex="1">
          <mxGeometry x="256.6923" y="4.719999999999999" width="18.9" height="18.897599999999997" as="geometry" />
        </mxCell>
        <mxCell id="aKW-pcGmiRxut2tbiqx5-108" value="" style="group" parent="1" vertex="1" connectable="0">
          <mxGeometry x="25" y="210" width="343.3064" height="28.346400000000017" as="geometry" />
        </mxCell>
        <mxCell id="aKW-pcGmiRxut2tbiqx5-10" value="" style="rounded=1;whiteSpace=wrap;html=1;arcSize=50;fillColor=#CCCCCC;" parent="aKW-pcGmiRxut2tbiqx5-108" vertex="1">
          <mxGeometry width="343.3064" height="28.3464" as="geometry" />
        </mxCell>
        <mxCell id="aKW-pcGmiRxut2tbiqx5-64" value="" style="ellipse;whiteSpace=wrap;html=1;aspect=fixed;" parent="aKW-pcGmiRxut2tbiqx5-108" vertex="1">
          <mxGeometry x="4.719999999999999" y="4.720000000000027" width="18.9" height="18.897599999999997" as="geometry" />
        </mxCell>
        <mxCell id="aKW-pcGmiRxut2tbiqx5-65" value="" style="ellipse;whiteSpace=wrap;html=1;aspect=fixed;" parent="aKW-pcGmiRxut2tbiqx5-108" vertex="1">
          <mxGeometry x="36.22" y="4.720000000000027" width="18.9" height="18.897599999999997" as="geometry" />
        </mxCell>
        <mxCell id="aKW-pcGmiRxut2tbiqx5-66" value="" style="ellipse;whiteSpace=wrap;html=1;aspect=fixed;" parent="aKW-pcGmiRxut2tbiqx5-108" vertex="1">
          <mxGeometry x="67.72" y="4.720000000000027" width="18.9" height="18.897599999999997" as="geometry" />
        </mxCell>
        <mxCell id="aKW-pcGmiRxut2tbiqx5-67" value="" style="ellipse;whiteSpace=wrap;html=1;aspect=fixed;" parent="aKW-pcGmiRxut2tbiqx5-108" vertex="1">
          <mxGeometry x="99.21000000000001" y="4.720000000000027" width="18.9" height="18.897599999999997" as="geometry" />
        </mxCell>
        <mxCell id="aKW-pcGmiRxut2tbiqx5-68" value="" style="ellipse;whiteSpace=wrap;html=1;aspect=fixed;" parent="aKW-pcGmiRxut2tbiqx5-108" vertex="1">
          <mxGeometry x="130.71" y="4.720000000000027" width="18.9" height="18.897599999999997" as="geometry" />
        </mxCell>
        <mxCell id="aKW-pcGmiRxut2tbiqx5-69" value="" style="ellipse;whiteSpace=wrap;html=1;aspect=fixed;" parent="aKW-pcGmiRxut2tbiqx5-108" vertex="1">
          <mxGeometry x="162.20000000000002" y="4.720000000000027" width="18.9" height="18.897599999999997" as="geometry" />
        </mxCell>
        <mxCell id="aKW-pcGmiRxut2tbiqx5-70" value="" style="ellipse;whiteSpace=wrap;html=1;aspect=fixed;" parent="aKW-pcGmiRxut2tbiqx5-108" vertex="1">
          <mxGeometry x="193.70000000000005" y="4.720000000000027" width="18.9" height="18.897599999999997" as="geometry" />
        </mxCell>
        <mxCell id="aKW-pcGmiRxut2tbiqx5-71" value="" style="ellipse;whiteSpace=wrap;html=1;aspect=fixed;" parent="aKW-pcGmiRxut2tbiqx5-108" vertex="1">
          <mxGeometry x="225.20000000000005" y="4.720000000000027" width="18.9" height="18.897599999999997" as="geometry" />
        </mxCell>
        <mxCell id="aKW-pcGmiRxut2tbiqx5-72" value="" style="ellipse;whiteSpace=wrap;html=1;aspect=fixed;" parent="aKW-pcGmiRxut2tbiqx5-108" vertex="1">
          <mxGeometry x="256.6923" y="4.720000000000027" width="18.9" height="18.897599999999997" as="geometry" />
        </mxCell>
        <mxCell id="aKW-pcGmiRxut2tbiqx5-73" value="" style="ellipse;whiteSpace=wrap;html=1;aspect=fixed;" parent="aKW-pcGmiRxut2tbiqx5-108" vertex="1">
          <mxGeometry x="288.1883" y="4.720000000000027" width="18.9" height="18.897599999999997" as="geometry" />
        </mxCell>
        <mxCell id="aKW-pcGmiRxut2tbiqx5-74" value="" style="ellipse;whiteSpace=wrap;html=1;aspect=fixed;" parent="aKW-pcGmiRxut2tbiqx5-108" vertex="1">
          <mxGeometry x="319.6843" y="4.720000000000027" width="18.9" height="18.897599999999997" as="geometry" />
        </mxCell>
        <mxCell id="aKW-pcGmiRxut2tbiqx5-109" value="" style="group" parent="1" vertex="1" connectable="0">
          <mxGeometry x="25" y="247" width="406.2984" height="28.346400000000017" as="geometry" />
        </mxCell>
        <mxCell id="aKW-pcGmiRxut2tbiqx5-11" value="" style="rounded=1;whiteSpace=wrap;html=1;arcSize=50;fillColor=#CCCCCC;" parent="aKW-pcGmiRxut2tbiqx5-109" vertex="1">
          <mxGeometry width="406.2984" height="28.3464" as="geometry" />
        </mxCell>
        <mxCell id="aKW-pcGmiRxut2tbiqx5-75" value="" style="ellipse;whiteSpace=wrap;html=1;aspect=fixed;" parent="aKW-pcGmiRxut2tbiqx5-109" vertex="1">
          <mxGeometry x="4.719999999999999" y="4.720000000000027" width="18.9" height="18.897599999999997" as="geometry" />
        </mxCell>
        <mxCell id="aKW-pcGmiRxut2tbiqx5-76" value="" style="ellipse;whiteSpace=wrap;html=1;aspect=fixed;" parent="aKW-pcGmiRxut2tbiqx5-109" vertex="1">
          <mxGeometry x="36.22" y="4.720000000000027" width="18.9" height="18.897599999999997" as="geometry" />
        </mxCell>
        <mxCell id="aKW-pcGmiRxut2tbiqx5-77" value="" style="ellipse;whiteSpace=wrap;html=1;aspect=fixed;" parent="aKW-pcGmiRxut2tbiqx5-109" vertex="1">
          <mxGeometry x="67.72" y="4.720000000000027" width="18.9" height="18.897599999999997" as="geometry" />
        </mxCell>
        <mxCell id="aKW-pcGmiRxut2tbiqx5-78" value="" style="ellipse;whiteSpace=wrap;html=1;aspect=fixed;" parent="aKW-pcGmiRxut2tbiqx5-109" vertex="1">
          <mxGeometry x="99.21000000000001" y="4.720000000000027" width="18.9" height="18.897599999999997" as="geometry" />
        </mxCell>
        <mxCell id="aKW-pcGmiRxut2tbiqx5-79" value="" style="ellipse;whiteSpace=wrap;html=1;aspect=fixed;" parent="aKW-pcGmiRxut2tbiqx5-109" vertex="1">
          <mxGeometry x="130.71" y="4.720000000000027" width="18.9" height="18.897599999999997" as="geometry" />
        </mxCell>
        <mxCell id="aKW-pcGmiRxut2tbiqx5-80" value="" style="ellipse;whiteSpace=wrap;html=1;aspect=fixed;" parent="aKW-pcGmiRxut2tbiqx5-109" vertex="1">
          <mxGeometry x="162.20000000000002" y="4.720000000000027" width="18.9" height="18.897599999999997" as="geometry" />
        </mxCell>
        <mxCell id="aKW-pcGmiRxut2tbiqx5-81" value="" style="ellipse;whiteSpace=wrap;html=1;aspect=fixed;" parent="aKW-pcGmiRxut2tbiqx5-109" vertex="1">
          <mxGeometry x="193.70000000000005" y="4.720000000000027" width="18.9" height="18.897599999999997" as="geometry" />
        </mxCell>
        <mxCell id="aKW-pcGmiRxut2tbiqx5-82" value="" style="ellipse;whiteSpace=wrap;html=1;aspect=fixed;" parent="aKW-pcGmiRxut2tbiqx5-109" vertex="1">
          <mxGeometry x="225.20000000000005" y="4.720000000000027" width="18.9" height="18.897599999999997" as="geometry" />
        </mxCell>
        <mxCell id="aKW-pcGmiRxut2tbiqx5-83" value="" style="ellipse;whiteSpace=wrap;html=1;aspect=fixed;" parent="aKW-pcGmiRxut2tbiqx5-109" vertex="1">
          <mxGeometry x="256.6923" y="4.720000000000027" width="18.9" height="18.897599999999997" as="geometry" />
        </mxCell>
        <mxCell id="aKW-pcGmiRxut2tbiqx5-84" value="" style="ellipse;whiteSpace=wrap;html=1;aspect=fixed;" parent="aKW-pcGmiRxut2tbiqx5-109" vertex="1">
          <mxGeometry x="288.1883" y="4.720000000000027" width="18.9" height="18.897599999999997" as="geometry" />
        </mxCell>
        <mxCell id="aKW-pcGmiRxut2tbiqx5-85" value="" style="ellipse;whiteSpace=wrap;html=1;aspect=fixed;" parent="aKW-pcGmiRxut2tbiqx5-109" vertex="1">
          <mxGeometry x="319.6843" y="4.720000000000027" width="18.9" height="18.897599999999997" as="geometry" />
        </mxCell>
        <mxCell id="aKW-pcGmiRxut2tbiqx5-86" value="" style="ellipse;whiteSpace=wrap;html=1;aspect=fixed;" parent="aKW-pcGmiRxut2tbiqx5-109" vertex="1">
          <mxGeometry x="351.1803" y="4.720000000000027" width="18.9" height="18.897599999999997" as="geometry" />
        </mxCell>
        <mxCell id="aKW-pcGmiRxut2tbiqx5-87" value="" style="ellipse;whiteSpace=wrap;html=1;aspect=fixed;" parent="aKW-pcGmiRxut2tbiqx5-109" vertex="1">
          <mxGeometry x="382.6763" y="4.720000000000027" width="18.9" height="18.897599999999997" as="geometry" />
        </mxCell>
        <mxCell id="aKW-pcGmiRxut2tbiqx5-147" value="" style="group" parent="1" vertex="1" connectable="0">
          <mxGeometry x="25" y="283" width="469.2904" height="28.346400000000017" as="geometry" />
        </mxCell>
        <mxCell id="aKW-pcGmiRxut2tbiqx5-12" value="" style="rounded=1;whiteSpace=wrap;html=1;arcSize=50;fillColor=#CCCCCC;" parent="aKW-pcGmiRxut2tbiqx5-147" vertex="1">
          <mxGeometry width="469.2904" height="28.3464" as="geometry" />
        </mxCell>
        <mxCell id="aKW-pcGmiRxut2tbiqx5-88" value="" style="ellipse;whiteSpace=wrap;html=1;aspect=fixed;" parent="aKW-pcGmiRxut2tbiqx5-147" vertex="1">
          <mxGeometry x="4.719999999999999" y="4.720000000000027" width="18.9" height="18.897599999999997" as="geometry" />
        </mxCell>
        <mxCell id="aKW-pcGmiRxut2tbiqx5-89" value="" style="ellipse;whiteSpace=wrap;html=1;aspect=fixed;" parent="aKW-pcGmiRxut2tbiqx5-147" vertex="1">
          <mxGeometry x="36.22" y="4.720000000000027" width="18.9" height="18.897599999999997" as="geometry" />
        </mxCell>
        <mxCell id="aKW-pcGmiRxut2tbiqx5-90" value="" style="ellipse;whiteSpace=wrap;html=1;aspect=fixed;" parent="aKW-pcGmiRxut2tbiqx5-147" vertex="1">
          <mxGeometry x="67.72" y="4.720000000000027" width="18.9" height="18.897599999999997" as="geometry" />
        </mxCell>
        <mxCell id="aKW-pcGmiRxut2tbiqx5-91" value="" style="ellipse;whiteSpace=wrap;html=1;aspect=fixed;" parent="aKW-pcGmiRxut2tbiqx5-147" vertex="1">
          <mxGeometry x="99.21000000000001" y="4.720000000000027" width="18.9" height="18.897599999999997" as="geometry" />
        </mxCell>
        <mxCell id="aKW-pcGmiRxut2tbiqx5-92" value="" style="ellipse;whiteSpace=wrap;html=1;aspect=fixed;" parent="aKW-pcGmiRxut2tbiqx5-147" vertex="1">
          <mxGeometry x="130.71" y="4.720000000000027" width="18.9" height="18.897599999999997" as="geometry" />
        </mxCell>
        <mxCell id="aKW-pcGmiRxut2tbiqx5-93" value="" style="ellipse;whiteSpace=wrap;html=1;aspect=fixed;" parent="aKW-pcGmiRxut2tbiqx5-147" vertex="1">
          <mxGeometry x="162.20000000000002" y="4.720000000000027" width="18.9" height="18.897599999999997" as="geometry" />
        </mxCell>
        <mxCell id="aKW-pcGmiRxut2tbiqx5-94" value="" style="ellipse;whiteSpace=wrap;html=1;aspect=fixed;" parent="aKW-pcGmiRxut2tbiqx5-147" vertex="1">
          <mxGeometry x="193.70000000000005" y="4.720000000000027" width="18.9" height="18.897599999999997" as="geometry" />
        </mxCell>
        <mxCell id="aKW-pcGmiRxut2tbiqx5-95" value="" style="ellipse;whiteSpace=wrap;html=1;aspect=fixed;" parent="aKW-pcGmiRxut2tbiqx5-147" vertex="1">
          <mxGeometry x="225.20000000000005" y="4.720000000000027" width="18.9" height="18.897599999999997" as="geometry" />
        </mxCell>
        <mxCell id="aKW-pcGmiRxut2tbiqx5-96" value="" style="ellipse;whiteSpace=wrap;html=1;aspect=fixed;" parent="aKW-pcGmiRxut2tbiqx5-147" vertex="1">
          <mxGeometry x="256.6923" y="4.720000000000027" width="18.9" height="18.897599999999997" as="geometry" />
        </mxCell>
        <mxCell id="aKW-pcGmiRxut2tbiqx5-97" value="" style="ellipse;whiteSpace=wrap;html=1;aspect=fixed;" parent="aKW-pcGmiRxut2tbiqx5-147" vertex="1">
          <mxGeometry x="288.1883" y="4.720000000000027" width="18.9" height="18.897599999999997" as="geometry" />
        </mxCell>
        <mxCell id="aKW-pcGmiRxut2tbiqx5-98" value="" style="ellipse;whiteSpace=wrap;html=1;aspect=fixed;" parent="aKW-pcGmiRxut2tbiqx5-147" vertex="1">
          <mxGeometry x="319.6843" y="4.720000000000027" width="18.9" height="18.897599999999997" as="geometry" />
        </mxCell>
        <mxCell id="aKW-pcGmiRxut2tbiqx5-99" value="" style="ellipse;whiteSpace=wrap;html=1;aspect=fixed;" parent="aKW-pcGmiRxut2tbiqx5-147" vertex="1">
          <mxGeometry x="351.1803" y="4.720000000000027" width="18.9" height="18.897599999999997" as="geometry" />
        </mxCell>
        <mxCell id="aKW-pcGmiRxut2tbiqx5-100" value="" style="ellipse;whiteSpace=wrap;html=1;aspect=fixed;" parent="aKW-pcGmiRxut2tbiqx5-147" vertex="1">
          <mxGeometry x="382.6763" y="4.720000000000027" width="18.9" height="18.897599999999997" as="geometry" />
        </mxCell>
        <mxCell id="aKW-pcGmiRxut2tbiqx5-101" value="" style="ellipse;whiteSpace=wrap;html=1;aspect=fixed;" parent="aKW-pcGmiRxut2tbiqx5-147" vertex="1">
          <mxGeometry x="414.1723" y="4.720000000000027" width="18.9" height="18.897599999999997" as="geometry" />
        </mxCell>
        <mxCell id="aKW-pcGmiRxut2tbiqx5-102" value="" style="ellipse;whiteSpace=wrap;html=1;aspect=fixed;" parent="aKW-pcGmiRxut2tbiqx5-147" vertex="1">
          <mxGeometry x="445.6683" y="4.720000000000027" width="18.9" height="18.897599999999997" as="geometry" />
        </mxCell>
        <mxCell id="aKW-pcGmiRxut2tbiqx5-127" value="" style="rounded=1;whiteSpace=wrap;html=1;fillColor=#808080;" parent="1" vertex="1">
          <mxGeometry x="25" y="320" width="500" height="18.897599999999997" as="geometry" />
        </mxCell>
        <mxCell id="aKW-pcGmiRxut2tbiqx5-128" value="" style="endArrow=none;html=1;rounded=0;exitX=0;exitY=0.25;exitDx=0;exitDy=0;entryX=1;entryY=0.25;entryDx=0;entryDy=0;" parent="1" source="aKW-pcGmiRxut2tbiqx5-127" target="aKW-pcGmiRxut2tbiqx5-127" edge="1">
          <mxGeometry width="50" height="50" relative="1" as="geometry">
            <mxPoint x="50" y="370" as="sourcePoint" />
            <mxPoint x="100" y="320" as="targetPoint" />
          </mxGeometry>
        </mxCell>
        <mxCell id="aKW-pcGmiRxut2tbiqx5-129" value="" style="endArrow=none;html=1;rounded=0;exitX=0;exitY=0.75;exitDx=0;exitDy=0;entryX=1;entryY=0.75;entryDx=0;entryDy=0;" parent="1" source="aKW-pcGmiRxut2tbiqx5-127" target="aKW-pcGmiRxut2tbiqx5-127" edge="1">
          <mxGeometry width="50" height="50" relative="1" as="geometry">
            <mxPoint x="75" y="395" as="sourcePoint" />
            <mxPoint x="125" y="345" as="targetPoint" />
          </mxGeometry>
        </mxCell>
        <mxCell id="G_Jk63Ys78dCZPzWRWpQ-1" value="Text" parent="0" />
        <mxCell id="G_Jk63Ys78dCZPzWRWpQ-3" value="|&lt;br style=&quot;font-size: 18px;&quot;&gt;2" style="text;html=1;strokeColor=none;fillColor=none;align=center;verticalAlign=top;whiteSpace=wrap;rounded=0;spacingLeft=0;spacingBottom=0;fontSize=18;" vertex="1" parent="G_Jk63Ys78dCZPzWRWpQ-1">
          <mxGeometry x="72.17" y="323.9" width="25" height="25.1968" as="geometry" />
        </mxCell>
        <mxCell id="G_Jk63Ys78dCZPzWRWpQ-4" value="|&lt;br style=&quot;font-size: 18px;&quot;&gt;15" style="text;html=1;strokeColor=none;fillColor=none;align=center;verticalAlign=top;whiteSpace=wrap;rounded=0;spacingLeft=0;spacingBottom=0;fontSize=18;" vertex="1" parent="G_Jk63Ys78dCZPzWRWpQ-1">
          <mxGeometry x="481.62" y="323.9" width="25" height="25.1968" as="geometry" />
        </mxCell>
        <mxCell id="G_Jk63Ys78dCZPzWRWpQ-5" value="|&lt;br&gt;3" style="text;strokeColor=none;fillColor=none;align=center;verticalAlign=top;rounded=0;spacingLeft=0;spacingBottom=0;fontSize=18;whiteSpace=wrap;html=1;" vertex="1" parent="G_Jk63Ys78dCZPzWRWpQ-1">
          <mxGeometry x="103.67000000000002" y="323.9" width="25" height="25.1968" as="geometry" />
        </mxCell>
        <mxCell id="G_Jk63Ys78dCZPzWRWpQ-6" value="|&lt;br&gt;4" style="text;strokeColor=none;fillColor=none;align=center;verticalAlign=top;rounded=0;spacingLeft=0;spacingBottom=0;fontSize=18;whiteSpace=wrap;html=1;" vertex="1" parent="G_Jk63Ys78dCZPzWRWpQ-1">
          <mxGeometry x="135.16000000000003" y="323.9" width="25" height="25.1968" as="geometry" />
        </mxCell>
        <mxCell id="G_Jk63Ys78dCZPzWRWpQ-7" value="|&lt;br&gt;5" style="text;strokeColor=none;fillColor=none;align=center;verticalAlign=top;rounded=0;spacingLeft=0;spacingBottom=0;fontSize=18;whiteSpace=wrap;html=1;" vertex="1" parent="G_Jk63Ys78dCZPzWRWpQ-1">
          <mxGeometry x="166.66000000000003" y="323.9" width="25" height="25.1968" as="geometry" />
        </mxCell>
        <mxCell id="G_Jk63Ys78dCZPzWRWpQ-8" value="|&lt;br&gt;6" style="text;strokeColor=none;fillColor=none;align=center;verticalAlign=top;rounded=0;spacingLeft=0;spacingBottom=0;fontSize=18;whiteSpace=wrap;html=1;" vertex="1" parent="G_Jk63Ys78dCZPzWRWpQ-1">
          <mxGeometry x="198.15000000000003" y="323.9" width="25" height="25.1968" as="geometry" />
        </mxCell>
        <mxCell id="G_Jk63Ys78dCZPzWRWpQ-9" value="|&lt;br&gt;7" style="text;strokeColor=none;fillColor=none;align=center;verticalAlign=top;rounded=0;spacingLeft=0;spacingBottom=0;fontSize=18;whiteSpace=wrap;html=1;" vertex="1" parent="G_Jk63Ys78dCZPzWRWpQ-1">
          <mxGeometry x="229.65000000000003" y="323.9" width="25" height="25.1968" as="geometry" />
        </mxCell>
        <mxCell id="G_Jk63Ys78dCZPzWRWpQ-10" value="|&lt;br&gt;8" style="text;strokeColor=none;fillColor=none;align=center;verticalAlign=top;rounded=0;spacingLeft=0;spacingBottom=0;fontSize=18;whiteSpace=wrap;html=1;" vertex="1" parent="G_Jk63Ys78dCZPzWRWpQ-1">
          <mxGeometry x="261.15000000000003" y="323.9" width="25" height="25.1968" as="geometry" />
        </mxCell>
        <mxCell id="G_Jk63Ys78dCZPzWRWpQ-11" value="|&lt;br&gt;9" style="text;strokeColor=none;fillColor=none;align=center;verticalAlign=top;rounded=0;spacingLeft=0;spacingBottom=0;fontSize=18;whiteSpace=wrap;html=1;" vertex="1" parent="G_Jk63Ys78dCZPzWRWpQ-1">
          <mxGeometry x="292.64000000000004" y="323.9" width="25" height="25.1968" as="geometry" />
        </mxCell>
        <mxCell id="G_Jk63Ys78dCZPzWRWpQ-12" value="|&lt;br&gt;10" style="text;strokeColor=none;fillColor=none;align=center;verticalAlign=top;rounded=0;spacingLeft=0;spacingBottom=0;fontSize=18;whiteSpace=wrap;html=1;" vertex="1" parent="G_Jk63Ys78dCZPzWRWpQ-1">
          <mxGeometry x="324.14000000000004" y="323.9" width="25" height="25.1968" as="geometry" />
        </mxCell>
        <mxCell id="G_Jk63Ys78dCZPzWRWpQ-13" value="|&lt;br&gt;11" style="text;strokeColor=none;fillColor=none;align=center;verticalAlign=top;rounded=0;spacingLeft=0;spacingBottom=0;fontSize=18;whiteSpace=wrap;html=1;" vertex="1" parent="G_Jk63Ys78dCZPzWRWpQ-1">
          <mxGeometry x="355.63000000000005" y="323.9" width="25" height="25.1968" as="geometry" />
        </mxCell>
        <mxCell id="G_Jk63Ys78dCZPzWRWpQ-14" value="|&lt;br&gt;12" style="text;strokeColor=none;fillColor=none;align=center;verticalAlign=top;rounded=0;spacingLeft=0;spacingBottom=0;fontSize=18;whiteSpace=wrap;html=1;" vertex="1" parent="G_Jk63Ys78dCZPzWRWpQ-1">
          <mxGeometry x="387.13000000000005" y="323.9" width="25" height="25.1968" as="geometry" />
        </mxCell>
        <mxCell id="G_Jk63Ys78dCZPzWRWpQ-15" value="|&lt;br&gt;13" style="text;strokeColor=none;fillColor=none;align=center;verticalAlign=top;rounded=0;spacingLeft=0;spacingBottom=0;fontSize=18;whiteSpace=wrap;html=1;" vertex="1" parent="G_Jk63Ys78dCZPzWRWpQ-1">
          <mxGeometry x="418.63000000000005" y="323.9" width="25" height="25.1968" as="geometry" />
        </mxCell>
        <mxCell id="G_Jk63Ys78dCZPzWRWpQ-16" value="|&lt;br&gt;14" style="text;strokeColor=none;fillColor=none;align=center;verticalAlign=top;rounded=0;spacingLeft=0;spacingBottom=0;fontSize=18;whiteSpace=wrap;html=1;" vertex="1" parent="G_Jk63Ys78dCZPzWRWpQ-1">
          <mxGeometry x="450.12000000000006" y="323.9" width="25" height="25.1968" as="geometry" />
        </mxCell>
        <mxCell id="G_Jk63Ys78dCZPzWRWpQ-17" value="2" style="rounded=0;whiteSpace=wrap;html=1;spacing=2;spacingBottom=2;fontSize=18;" vertex="1" parent="G_Jk63Ys78dCZPzWRWpQ-1">
          <mxGeometry x="109.84" y="25" width="25" height="25" as="geometry" />
        </mxCell>
        <mxCell id="G_Jk63Ys78dCZPzWRWpQ-18" value="3" style="rounded=0;whiteSpace=wrap;html=1;spacing=2;spacingBottom=2;fontSize=18;" vertex="1" parent="G_Jk63Ys78dCZPzWRWpQ-1">
          <mxGeometry x="141.34" y="62" width="25" height="25" as="geometry" />
        </mxCell>
        <mxCell id="G_Jk63Ys78dCZPzWRWpQ-19" value="5" style="rounded=0;whiteSpace=wrap;html=1;spacing=2;spacingBottom=2;fontSize=18;" vertex="1" parent="G_Jk63Ys78dCZPzWRWpQ-1">
          <mxGeometry x="204.32999999999998" y="99" width="25" height="25" as="geometry" />
        </mxCell>
        <mxCell id="G_Jk63Ys78dCZPzWRWpQ-20" value="7" style="rounded=0;whiteSpace=wrap;html=1;spacing=2;spacingBottom=2;fontSize=18;" vertex="1" parent="G_Jk63Ys78dCZPzWRWpQ-1">
          <mxGeometry x="267.32" y="136" width="25" height="25" as="geometry" />
        </mxCell>
        <mxCell id="G_Jk63Ys78dCZPzWRWpQ-21" value="9" style="rounded=0;whiteSpace=wrap;html=1;spacing=2;spacingBottom=2;fontSize=18;" vertex="1" parent="G_Jk63Ys78dCZPzWRWpQ-1">
          <mxGeometry x="330.31" y="173" width="25" height="25" as="geometry" />
        </mxCell>
        <mxCell id="G_Jk63Ys78dCZPzWRWpQ-22" value="11" style="rounded=0;whiteSpace=wrap;html=1;spacing=2;spacingBottom=2;fontSize=18;" vertex="1" parent="G_Jk63Ys78dCZPzWRWpQ-1">
          <mxGeometry x="393.31" y="210" width="25" height="25" as="geometry" />
        </mxCell>
        <mxCell id="G_Jk63Ys78dCZPzWRWpQ-23" value="13" style="rounded=0;whiteSpace=wrap;html=1;spacing=2;spacingBottom=2;fontSize=18;" vertex="1" parent="G_Jk63Ys78dCZPzWRWpQ-1">
          <mxGeometry x="456.3" y="247" width="25" height="25" as="geometry" />
        </mxCell>
        <mxCell id="G_Jk63Ys78dCZPzWRWpQ-24" value="15" style="rounded=0;whiteSpace=wrap;html=1;spacing=2;spacingBottom=2;fontSize=18;" vertex="1" parent="G_Jk63Ys78dCZPzWRWpQ-1">
          <mxGeometry x="519.29" y="283" width="25" height="25" as="geometry" />
        </mxCell>
        <mxCell id="G_Jk63Ys78dCZPzWRWpQ-25" value="Beam and Axle Ruler" style="text;strokeColor=none;fillColor=none;align=center;verticalAlign=middle;whiteSpace=wrap;rounded=0;fontSize=26;spacing=2;html=1;fontStyle=0;fontColor=#FFFFFF;labelBackgroundColor=none;labelBorderColor=none;shadow=0;" vertex="1" parent="G_Jk63Ys78dCZPzWRWpQ-1">
          <mxGeometry x="350" y="25" width="200" height="100" as="geometry" />
        </mxCell>
        <mxCell id="G_Jk63Ys78dCZPzWRWpQ-26" value="CC BY-SA 4.0" style="text;html=1;strokeColor=none;fillColor=none;align=center;verticalAlign=middle;whiteSpace=wrap;rounded=0;" vertex="1" parent="G_Jk63Ys78dCZPzWRWpQ-1">
          <mxGeometry x="500" y="375" width="100.44" height="25" as="geometry" />
        </mxCell>
      </root>
    </mxGraphModel>
  </diagram>
</mxfile>
